<?xml version="1.0" encoding="UTF-8" standalone="no"?><!DOCTYPE svg PUBLIC "-//W3C//DTD SVG 1.1//EN" "http://www.w3.org/Graphics/SVG/1.1/DTD/svg11.dtd"><svg width="100%" height="100%" viewBox="0 0 501 501" version="1.1" xmlns="http://www.w3.org/2000/svg" xmlns:xlink="http://www.w3.org/1999/xlink" xml:space="preserve" xmlns:serif="http://www.serif.com/" style="fill-rule:evenodd;clip-rule:evenodd;stroke-linejoin:round;stroke-miterlimit:2;"><g><path d="M373.161,242.737c47.049,18.387 54.035,250.386 34.021,257.268c-0.845,0.291 -77.448,1.314 -78.143,0.225c-1.188,-1.863 17.739,-69.685 6.785,-168.146c-9.025,-81.117 6.99,-156.055 3.332,-238.42c-3.171,-71.389 -11.178,-91.865 -10.167,-92.875c0.753,-0.751 62.59,-0.816 63.964,0.05c6.065,3.825 8.543,27.987 9.945,43.011c6.393,68.534 -4.233,112.372 -6.533,121.86c-16.885,69.659 -27.42,70.326 -26.336,76.171c0.047,0.255 0.071,0.381 3.132,0.856Zm9.196,137.021c-2.914,-68.26 -8.971,-95.512 -10.242,-99.638c-7.614,-24.731 -11.398,6.379 -11.531,7.47c-5.715,46.983 7.988,94.119 11.735,117.531c8.487,53.025 -1.271,75.251 3.93,69.986c9.273,-9.384 6.388,-87.711 6.107,-95.349Zm-17.083,-228.887c-0.122,6.967 -1.102,63.025 -6.121,86.883c-1.661,7.894 2.551,0.341 2.597,0.138c2.857,-12.638 17.995,-79.615 15.768,-161.187c-1.18,-43.194 -6.804,-57.68 -9.814,-46.64c-6.869,25.199 -0.706,73.224 -2.431,120.805Z" style="fill:#fff;"/><path d="M172.365,367.04c0.96,61.149 1.048,90.341 9.972,128.204c1.487,6.309 -1.969,5.169 -8.464,5.172c-17.411,0.006 -20.727,2.053 -24.464,-8.321c-14.12,-39.201 -2.326,-203.917 -18.975,-220.427c-6.979,-6.921 -15.203,42.152 -1.775,103.767c1.936,8.884 13.153,60.353 6.99,113.439c-0.062,0.532 -0.368,11.413 -4.171,11.517c-3.164,0.086 -37.804,1.031 -39.569,-0.397c-2.874,-2.326 1.204,-3.177 3.295,-46.099c5.567,-114.282 -5.646,-175.512 -0.731,-272.284c3.906,-76.908 9.663,-77.244 -3.524,-179.059c-0.482,-3.725 2.216,-2.186 46.899,-2.186c14.414,0 18.917,-3.408 22.518,10.59c1.092,4.246 18.073,93.052 -8.056,177.959c-15.917,51.722 -23.897,52.529 -19.912,53.416c8.355,1.858 20.212,4.608 32.328,56.807c6.158,26.531 7.445,62.441 7.64,67.904Zm-49.658,-126.557c1.616,-3.414 27.563,-106.473 13.207,-208.296c-1.433,-10.164 -4.641,-11.32 -5.549,-8.484c-8.779,27.414 1.987,77.65 -5.35,178.028c-1.361,18.616 -1.358,18.528 -3.784,37.075c-0.168,1.281 0.251,1.079 1.476,1.677Z" style="fill:#fff;"/><path d="M172.41,234.586c0.897,-126.761 18.737,-243.64 41.572,-233.79c16.292,7.027 24.672,69.806 25.172,72.808c21.696,130.289 10.768,392.773 -21.066,423.455c-35.652,34.361 -48.618,-196.456 -45.678,-262.474Zm51.988,-46.638c0.494,-11.417 5.427,-125.485 0.967,-142.839c-7.086,-27.569 -28.865,226.576 -29.58,364.307c-0.696,134.253 19.47,-35.781 28.613,-221.468Z" style="fill:#fff;"/><path d="M330.279,221.877c3.14,221.25 -32.609,344.082 -59.12,242.684c-32.68,-124.991 -20.002,-469.416 21.382,-464.111c18.176,2.33 35.472,89.048 37.739,221.427Zm-52.957,120.761c-0.329,9.177 -4.105,114.559 1.411,114.78c12.316,0.495 38.645,-421.796 24.711,-413.11c-7.016,4.373 -21.668,180.878 -26.122,298.33Z" style="fill:#fff;"/><path d="M82.366,261.123c8.165,87.179 6.445,104.059 2.279,159.929c-0.24,3.218 -5.877,64.942 -20.322,75.839c-0.917,0.692 -1.091,4.376 -22.895,3.523c-60.096,-2.351 -53.912,-499.428 12.716,-499.579c31.21,-0.071 33.552,-0.308 32.557,2.681c-18.205,54.679 -4.097,152.405 -6.368,154.437c-0.533,0.477 -25.953,2.029 -28.023,-0.883c-5.288,-7.437 -6.601,-85.996 4.925,-129.107c0.122,-0.455 1.926,-7.204 -0.55,-5.859c-5.559,3.021 -34.755,173.118 -24.021,353.426c2.398,40.283 6.816,76.499 11.13,89.964c0.289,0.902 5.471,17.077 10.507,5.456c9.804,-22.625 17.29,-95.506 12.419,-173.84c-0.929,-14.935 0.071,-22.44 -2.558,-16.736c-1.086,2.356 -9.622,109.406 -17.386,110.319c-4.839,0.569 -7.531,-14.775 -7.779,-16.19c-7.383,-42.079 -4.545,-118.989 -4.163,-129.334c0.068,-1.847 -0.697,-13.667 2.083,-11.357c0.201,0.167 3.182,28.256 12.703,13.305c7.116,-11.174 18.203,-59.517 28.494,-12.441c2.609,11.937 4.2,26.053 4.254,26.447Z" style="fill:#fff;"/><path d="M485.728,198.775c1.551,-0.215 1.719,-0.391 2.576,0.952c0.67,6.927 0.117,103.259 -7.391,115.257c-12.333,19.709 -22.137,-67.001 -27.541,-77.089c-12.068,-22.528 -8.901,177.126 8.336,234.143c8.469,28.012 13.623,-4.961 12.166,-47.793c-2.595,-76.309 -7.408,-81.488 -2.263,-81.586c22.328,-0.425 22.816,-0.125 24.487,0.9c8.7,5.339 6.663,156.491 -16.014,156.846c-32.701,0.512 -33.597,-0.368 -35.637,-2.369c-10.19,-9.999 -14.988,-38.563 -15.733,-41.867c-20.435,-90.612 -19.136,-375.176 24.33,-443.752c8.421,-13.286 13.412,-11.757 43.986,-11.585c3.654,0.021 2.97,2.314 2.744,3.755c-11.927,75.878 -2.542,150.856 -3.16,152.549c-0.657,1.803 -1.26,1.74 -23.944,1.422c-4.464,-0.062 -8.059,-0.777 -8.271,-34.168c-0.599,-94.548 12.541,-102.467 10.395,-104.9c-1.334,-1.512 -2.144,0.119 -9.727,23.246c-22.762,69.422 -21.226,152.492 -19.427,166.361c3.429,26.429 5.472,-5.933 10.416,-18.895c7.892,-20.692 12.436,10.14 18.847,17.8c6.862,8.199 9.847,-6.145 10.825,-9.228Z" style="fill:#fff;"/></g></svg>